<?xml version="1.0" encoding="UTF-8"?>
<svg version="1.1" xmlns="http://www.w3.org/2000/svg" width="128" height="128">
<path d="M0 0 C1.04328461 -0.00281982 2.08656921 -0.00563965 3.16146851 -0.00854492 C4.31579376 -0.00652069 5.47011902 -0.00449646 6.65942383 -0.00241089 C7.86740631 -0.00416321 9.07538879 -0.00591553 10.31997681 -0.00772095 C13.64221462 -0.01137913 16.96439051 -0.01050604 20.28662491 -0.00734186 C23.75618831 -0.00481787 27.22574899 -0.00715591 30.6953125 -0.00872803 C36.5228727 -0.01054961 42.35042024 -0.00814371 48.17797852 -0.00338745 C54.924568 0.00205515 61.67112727 0.00029249 68.41771603 -0.00521386 C74.20029682 -0.00974531 79.98286849 -0.01039538 85.76545048 -0.00777519 C89.22347064 -0.00621259 92.68147659 -0.00601817 96.13949585 -0.00931168 C99.99250471 -0.01272475 103.84547947 -0.00800012 107.69848633 -0.00241089 C109.42997421 -0.00544724 109.42997421 -0.00544724 111.19644165 -0.00854492 C112.76136856 -0.00431519 112.76136856 -0.00431519 114.35791016 0 C115.27010818 0.00037703 116.18230621 0.00075405 117.12214661 0.0011425 C119.17895508 0.12698364 119.17895508 0.12698364 120.17895508 1.12698364 C120.27959707 4.16564125 120.31510098 7.18161094 120.30834961 10.22073364 C120.31097809 11.65231812 120.31097809 11.65231812 120.31365967 13.11282349 C120.31807994 16.28422842 120.31513958 19.45557809 120.31176758 22.62698364 C120.31244057 24.82034313 120.31341055 27.01370254 120.31466675 29.20706177 C120.31614396 33.81058459 120.31398842 38.41408806 120.30932617 43.01760864 C120.30362888 48.93302959 120.30690776 54.84840518 120.31289864 60.76382446 C120.31650362 65.2949559 120.31536595 69.8260765 120.31277084 74.35720825 C120.3121014 76.53901169 120.3129306 78.7208161 120.3152504 80.90261841 C120.3177759 83.94618354 120.31393778 86.9896741 120.30834961 90.03323364 C120.31037384 90.9444397 120.31239807 91.85564575 120.31448364 92.79446411 C120.29321737 99.01272135 120.29321737 99.01272135 119.17895508 100.12698364 C117.76555414 100.28467714 116.34769986 100.4033292 114.92895508 100.50198364 C110.9444431 100.8877856 108.52524145 101.86331933 105.17895508 104.12698364 C104.18895508 104.12698364 103.19895508 104.12698364 102.17895508 104.12698364 C101.13991728 108.55380855 100.86302556 112.91632996 100.61645508 117.43948364 C100.55167969 118.55033325 100.55167969 118.55033325 100.4855957 119.68362427 C100.38025076 121.49789828 100.27917192 123.31241914 100.17895508 125.12698364 C98.38208008 125.74807739 98.38208008 125.74807739 96.17895508 126.12698364 C92.92895508 124.18948364 92.92895508 124.18948364 90.17895508 122.12698364 C89.43645508 122.78698364 88.69395508 123.44698364 87.92895508 124.12698364 C85.17895508 126.12698364 85.17895508 126.12698364 81.17895508 126.12698364 C81.11836914 124.95780396 81.0577832 123.78862427 80.99536133 122.58401489 C80.91091474 121.0358275 80.82626882 119.48765097 80.74145508 117.93948364 C80.70213867 117.17055786 80.66282227 116.40163208 80.62231445 115.60940552 C80.40388474 111.69447289 80.092034 107.95577676 79.17895508 104.12698364 C76.86895508 103.79698364 74.55895508 103.46698364 72.17895508 103.12698364 C71.84895508 102.13698364 71.51895508 101.14698364 71.17895508 100.12698364 C70.2290419 100.12920425 69.27912872 100.13142487 68.3004303 100.13371277 C59.36804412 100.15394491 50.43566256 100.16895613 41.50325871 100.17879581 C36.91052868 100.18402446 32.31781708 100.19112176 27.72509766 100.2024231 C23.2966182 100.21325264 18.86815651 100.21926062 14.43966484 100.22186089 C12.7462988 100.22371501 11.05293378 100.22733539 9.35957527 100.2327137 C6.99604276 100.23992504 4.63258463 100.24097455 2.26904297 100.24050903 C1.56198212 100.24410431 0.85492126 100.24769958 0.12643433 100.25140381 C-4.70699276 100.2410358 -4.70699276 100.2410358 -5.82104492 99.12698364 C-5.92168691 96.08832603 -5.95719082 93.07235634 -5.95043945 90.03323364 C-5.95219177 89.07884399 -5.95394409 88.12445435 -5.95574951 87.1411438 C-5.96016979 83.96973887 -5.95722942 80.79838919 -5.95385742 77.62698364 C-5.95453041 75.43362416 -5.95550039 73.24026475 -5.95675659 71.04690552 C-5.9582338 66.44338269 -5.95607826 61.83987923 -5.95141602 57.23635864 C-5.94571872 51.32093769 -5.9489976 45.40556211 -5.95498848 39.49014282 C-5.95859346 34.95901138 -5.9574558 30.42789079 -5.95486069 25.89675903 C-5.95419124 23.71495559 -5.95502044 21.53315119 -5.95734024 19.35134888 C-5.95986574 16.30778375 -5.95602762 13.26429319 -5.95043945 10.22073364 C-5.95246368 9.30952759 -5.95448792 8.39832153 -5.95657349 7.45950317 C-5.93107057 0.0024514 -5.93107057 0.0024514 0 0 Z M-0.82104492 5.12698364 C-0.82104492 34.82698364 -0.82104492 64.52698364 -0.82104492 95.12698364 C23.26895508 95.12698364 47.35895508 95.12698364 72.17895508 95.12698364 C72.17895508 94.13698364 72.17895508 93.14698364 72.17895508 92.12698364 C41.98395508 91.63198364 41.98395508 91.63198364 11.17895508 91.12698364 C10.51895508 89.47698364 9.85895508 87.82698364 9.17895508 86.12698364 C7.15037198 83.75540337 7.15037198 83.75540337 3.17895508 83.12698364 C3.17895508 61.34698364 3.17895508 39.56698364 3.17895508 17.12698364 C4.82895508 16.46698364 6.47895508 15.80698364 8.17895508 15.12698364 C10.55053535 13.09840055 10.55053535 13.09840055 11.17895508 9.12698364 C41.53895508 9.12698364 71.89895508 9.12698364 103.17895508 9.12698364 C104.16895508 11.60198364 104.16895508 11.60198364 105.17895508 14.12698364 C107.31750357 16.26553214 108.31170821 16.55353427 111.17895508 17.12698364 C111.22523326 26.61044379 111.2608012 36.09386525 111.28257942 45.57741356 C111.29303025 49.98069615 111.30721304 54.38390167 111.32983398 58.78713989 C111.3515162 63.03408189 111.36351391 67.2809496 111.36870956 71.52794266 C111.37241366 73.15071406 111.37964653 74.77348126 111.39041519 76.39622116 C111.40486888 78.66382481 111.40693562 80.93111892 111.40600586 83.19876099 C111.41044708 84.49115692 111.41488831 85.78355286 111.41946411 87.1151123 C111.17895508 90.12698364 111.17895508 90.12698364 109.17895508 92.12698364 C109.17895508 93.11698364 109.17895508 94.10698364 109.17895508 95.12698364 C111.15895508 95.12698364 113.13895508 95.12698364 115.17895508 95.12698364 C115.17895508 65.42698364 115.17895508 35.72698364 115.17895508 5.12698364 C76.89895508 5.12698364 38.61895508 5.12698364 -0.82104492 5.12698364 Z M13.49121094 15.47991943 C13.0581665 16.35345062 12.62512207 17.22698181 12.17895508 18.12698364 C11.30542389 18.60925415 10.4318927 19.09152466 9.53189087 19.58840942 C6.92693141 20.91141987 6.92693141 20.91141987 6.54403687 23.66946411 C6.5400589 24.68411743 6.53608093 25.69877075 6.53198242 26.74417114 C6.51622162 27.89546509 6.50046082 29.04675903 6.48422241 30.23294067 C6.49434357 31.47672485 6.50446472 32.72050903 6.51489258 34.00198364 C6.51010895 35.27799438 6.50532532 36.55400513 6.50039673 37.86868286 C6.49699047 40.5695746 6.50372891 43.2682106 6.52709961 45.96878052 C6.55559046 49.42960455 6.5391866 52.88849027 6.50923729 56.34924316 C6.48682118 59.65022621 6.50251744 62.9509753 6.51489258 66.25198364 C6.50477142 67.49576782 6.49465027 68.739552 6.48422241 70.02102661 C6.49998322 71.17232056 6.51574402 72.3236145 6.53198242 73.50979614 C6.53596039 74.52444946 6.53993835 75.53910278 6.54403687 76.58450317 C6.92693141 79.34254742 6.92693141 79.34254742 9.53189087 80.66555786 C10.84218765 81.38896362 10.84218765 81.38896362 12.17895508 82.12698364 C12.91224785 83.43973518 12.91224785 83.43973518 13.66035461 84.77900696 C14.95165662 87.36192406 14.95165662 87.36192406 17.58976746 87.72825623 C18.54240982 87.71715317 19.49505219 87.70605011 20.4765625 87.6946106 C22.09790352 87.69404411 22.09790352 87.69404411 23.7519989 87.69346619 C24.91769913 87.66765976 26.08339935 87.64185333 27.28442383 87.61526489 C28.47876541 87.60819016 29.67310699 87.60111542 30.90364075 87.59382629 C34.7252111 87.56579667 38.54532619 87.50303722 42.36645508 87.43948364 C44.95432457 87.41441209 47.54221699 87.39159694 50.13012695 87.37112427 C56.48023439 87.31594162 62.8294908 87.23222813 69.17895508 87.12698364 C69.61014648 86.16018677 69.61014648 86.16018677 70.05004883 85.17385864 C71.17895508 83.12698364 71.17895508 83.12698364 73.24145508 82.37698364 C75.35892751 81.32258588 75.35892751 81.32258588 75.65942383 79.22854614 C75.90472734 77.20212584 76.04753709 75.16396238 76.17895508 73.12698364 C76.79383789 73.08960083 77.4087207 73.05221802 78.04223633 73.01370239 C79.25459961 72.91508911 79.25459961 72.91508911 80.49145508 72.81448364 C81.29196289 72.75647583 82.0924707 72.69846802 82.91723633 72.63870239 C85.57504163 72.03736821 86.37047172 71.09092403 88.17895508 69.12698364 C90.67895508 68.75198364 90.67895508 68.75198364 93.17895508 69.12698364 C93.61208008 69.60135864 94.04520508 70.07573364 94.49145508 70.56448364 C97.26883355 73.13613038 100.48132544 72.82389925 104.17895508 73.12698364 C105.16895508 76.09698364 105.16895508 76.09698364 106.17895508 79.12698364 C106.50895508 79.12698364 106.83895508 79.12698364 107.17895508 79.12698364 C107.29477537 71.61673385 107.38363244 64.10657656 107.43801594 56.59563732 C107.46411719 53.10796264 107.49952173 49.62089862 107.55615234 46.13357544 C107.6208437 42.12480797 107.64513074 38.11668244 107.66723633 34.10745239 C107.69304276 32.85425705 107.71884918 31.60106171 107.74543762 30.30989075 C107.74581528 29.14891373 107.74619293 27.98793671 107.74658203 26.79177856 C107.75768509 25.76807663 107.76878815 24.74437469 107.78022766 23.68965149 C107.43875511 20.91200306 107.43875511 20.91200306 104.83097839 19.58543396 C103.9558107 19.10414536 103.08064301 18.62285675 102.17895508 18.12698364 C101.74591064 17.25345245 101.31286621 16.37992126 100.86669922 15.47991943 C99.30556765 12.7267513 99.30556765 12.7267513 95.64941406 12.49206543 C94.15825041 12.46231059 92.66638048 12.46040745 91.17504883 12.48001099 C89.95267014 12.46686859 89.95267014 12.46686859 88.70559692 12.45346069 C86.00867655 12.43143247 83.31339244 12.44603069 80.61645508 12.46292114 C78.7446257 12.45955397 76.87279845 12.45470218 75.00097656 12.44842529 C71.07669268 12.44104935 67.15297757 12.45178255 63.22875977 12.47512817 C58.19425692 12.50361653 53.16108662 12.48721639 48.12663269 12.45726585 C44.26100595 12.43921227 40.39569601 12.44494195 36.53005981 12.45790482 C34.67367394 12.46124421 32.81725945 12.45713306 30.96090698 12.44550705 C28.36744837 12.43282985 25.77615805 12.45212918 23.18286133 12.48001099 C22.41289825 12.46988983 21.64293518 12.45976868 20.84963989 12.44934082 C16.45395668 12.48737289 16.45395668 12.48737289 13.49121094 15.47991943 Z M83.17895508 87.12698364 C82.62244229 90.53562446 82.79710149 92.34206239 84.30395508 95.43948364 C86.91551712 97.78988948 88.68969585 98.05719846 92.17895508 98.12698364 C95.90739472 96.39353489 95.90739472 96.39353489 98.17895508 93.12698364 C98.72460371 89.0346189 98.53218682 87.59123108 95.99145508 84.25198364 C93.40624121 82.01056333 93.40624121 82.01056333 90.67895508 81.50198364 C86.97031122 82.42914461 85.46910224 84.11707594 83.17895508 87.12698364 Z " fill="#182E5B" transform="translate(6.821044921875,0.873016357421875)"/>
<path d="M0 0 C1.17044357 0.00303635 1.17044357 0.00303635 2.36453247 0.00613403 C3.59129196 0.00350555 3.59129196 0.00350555 4.84283447 0.00082397 C7.55972383 -0.00359528 10.27654865 -0.0006563 12.99343872 0.00271606 C14.87291476 0.00204305 16.75239071 0.00107304 18.63186646 -0.00018311 C22.57629218 -0.00166018 26.5206953 0.00049478 30.46511841 0.00515747 C35.53306375 0.01085476 40.60095614 0.00757581 45.66889954 0.00158501 C49.55150759 -0.00202035 53.434103 -0.00088214 57.31671143 0.0017128 C59.18591315 0.00238214 61.055116 0.00155341 62.92431641 -0.00076675 C65.53202376 -0.00329287 68.13964413 0.00054672 70.74734497 0.00613403 C71.52764069 0.0041098 72.3079364 0.00208557 73.11187744 0 C78.44167619 0.02126603 78.44167619 0.02126603 79.55593872 1.13552856 C79.62820374 2.98840358 79.63975092 4.84386734 79.61843872 6.69802856 C79.60941528 7.70994263 79.60039185 8.72185669 79.59109497 9.76443481 C79.57949341 10.54689575 79.56789185 11.32935669 79.55593872 12.13552856 C76.46928272 13.67885656 73.22013896 13.27398646 69.83328247 13.2649231 C68.63797409 13.26755157 68.63797409 13.26755157 67.41851807 13.27023315 C64.77680299 13.27464485 62.13515452 13.27171607 59.49343872 13.26834106 C57.66262804 13.2690143 55.83181745 13.26998449 54.00100708 13.27124023 C50.16091055 13.27271628 46.32083725 13.27056563 42.48074341 13.26589966 C37.55080821 13.26020243 32.62092746 13.26348193 27.69099426 13.26947212 C23.90957222 13.27308024 20.12816315 13.27193799 16.34674072 13.26934433 C14.52860508 13.26867576 12.71046827 13.26950107 10.89233398 13.27182388 C8.3543891 13.27435449 5.8165332 13.27050401 3.27859497 13.2649231 C2.14395309 13.26795944 2.14395309 13.26795944 0.98638916 13.27105713 C-4.21553267 13.24979287 -4.21553267 13.24979287 -6.44406128 12.13552856 C-6.47093407 10.32310805 -6.49039843 8.51057623 -6.50656128 6.69802856 C-6.51816284 5.68869263 -6.5297644 4.67935669 -6.54171753 3.63943481 C-6.36172099 -0.97567651 -4.04543716 0.0161414 0 0 Z " fill="#193360" transform="translate(27.444061279296875,51.864471435546875)"/>
<path d="M0 0 C1.0209375 0.9590625 1.0209375 0.9590625 2.0625 1.9375 C5.46408839 4.3258493 7.90433701 4.67877153 12 5 C12.268125 6.11375 12.53625 7.2275 12.8125 8.375 C13.65809019 12.21840951 13.65809019 12.21840951 17 14 C16.855625 14.556875 16.71125 15.11375 16.5625 15.6875 C16.376875 16.450625 16.19125 17.21375 16 18 C15.79375 18.825 15.5875 19.65 15.375 20.5 C14.99321256 23.04524959 15.19447527 24.58342581 16 27 C13.69 27.33 11.38 27.66 9 28 C8.34 29.98 7.68 31.96 7 34 C6.39671875 33.91621094 5.7934375 33.83242187 5.171875 33.74609375 C4.37265625 33.64425781 3.5734375 33.54242188 2.75 33.4375 C1.96109375 33.33308594 1.1721875 33.22867188 0.359375 33.12109375 C-2.00532874 32.99972651 -3.7511037 33.30366743 -6 34 C-6.37125 33.21625 -6.7425 32.4325 -7.125 31.625 C-9.43306306 28.39371171 -11.21616321 27.92493788 -15 27 C-14.773125 25.741875 -14.54625 24.48375 -14.3125 23.1875 C-13.77993292 19.89580084 -13.77993292 19.89580084 -15.4375 17.125 C-15.953125 16.75375 -16.46875 16.3825 -17 16 C-17 15.34 -17 14.68 -17 14 C-15.7934375 13.38125 -15.7934375 13.38125 -14.5625 12.75 C-11.67500908 11.19196489 -11.67500908 11.19196489 -11.1875 7.8125 C-11.125625 6.884375 -11.06375 5.95625 -11 5 C-9.39125 4.87625 -9.39125 4.87625 -7.75 4.75 C-3.7261549 3.94523098 -2.51830747 3.12270126 0 0 Z M-10 10 C-12.52470277 13.48649431 -12.36226929 16.79767625 -12 21 C-10.74244162 24.44173874 -9.62080644 26.45222961 -6.875 28.875 C-2.78376271 30.47591894 0.67546253 30.88557081 5 30 C8.79829898 28.13615069 11.31727037 25.85648649 12.79296875 21.84375 C13.498241 17.76574017 13.23257451 14.74904306 11.3125 11.0625 C8.63564829 7.51748016 6.97566058 6.27627124 2.59765625 5.6640625 C-2.864797 5.57989527 -6.15860195 5.67842719 -10 10 Z " fill="#12A5D5" transform="translate(97,73)"/>
<path d="M0 0 C25.74 0 51.48 0 78 0 C78 0.99 78 1.98 78 3 C52.26 3 26.52 3 0 3 C0 2.01 0 1.02 0 0 Z " fill="#12ACDC" transform="translate(25,57)"/>
<path d="M0 0 C1.6874269 0.00015917 3.37485866 0.00585622 5.06225586 0.01586914 C6.39189613 0.01799156 6.39189613 0.01799156 7.74839783 0.02015686 C10.59133215 0.02577324 13.43418892 0.03832848 16.27709961 0.05102539 C18.19962452 0.05603828 20.12215065 0.06060155 22.04467773 0.06469727 C26.7680151 0.07574798 31.49129419 0.09302356 36.21459961 0.11352539 C36.77709961 2.05102539 36.77709961 2.05102539 37.21459961 4.11352539 C36.21459961 5.11352539 36.21459961 5.11352539 32.42919922 5.22705078 C30.74177232 5.22689162 29.05434056 5.22119456 27.36694336 5.21118164 C26.03730309 5.20905922 26.03730309 5.20905922 24.68080139 5.20689392 C21.83786707 5.20127755 18.9950103 5.1887223 16.15209961 5.17602539 C14.2295747 5.1710125 12.30704856 5.16644923 10.38452148 5.16235352 C5.66118412 5.1513028 0.93790503 5.13402722 -3.78540039 5.11352539 C-4.34790039 3.17602539 -4.34790039 3.17602539 -4.78540039 1.11352539 C-3.78540039 0.11352539 -3.78540039 0.11352539 0 0 Z " fill="#182D5B" transform="translate(47.785400390625,66.886474609375)"/>
<path d="M0 0 C0.66 0.33 1.32 0.66 2 1 C2 3.97 2 6.94 2 10 C1.113125 9.443125 0.22625 8.88625 -0.6875 8.3125 C-2.3271875 7.6628125 -2.3271875 7.6628125 -4 7 C-6.87391821 8.17274994 -6.87391821 8.17274994 -9 10 C-9 7.03 -9 4.06 -9 1 C-4.80184617 -1.09907691 -4.20805526 -1.21812126 0 0 Z " fill="#12A8D8" transform="translate(101,110)"/>
<path d="M0 0 C2.02054804 1.64169528 4.02043058 3.30911778 6 5 C6 5.33 6 5.66 6 6 C3.03 6 0.06 6 -3 6 C-3 3 -3 3 -1.5 1.3125 C-0.7575 0.6628125 -0.7575 0.6628125 0 0 Z " fill="#1398C7" transform="translate(97,73)"/>
<path d="M0 0 C3 3.75 3 3.75 3 6 C3.99 6.33 4.98 6.66 6 7 C5.34 7.66 4.68 8.32 4 9 C1.69 8.01 -0.62 7.02 -3 6 C-2.67 4.68 -2.34 3.36 -2 2 C-1.34 2 -0.68 2 0 2 C0 1.34 0 0.68 0 0 Z " fill="#129DCC" transform="translate(85,94)"/>
<path d="M0 0 C1.32 0 2.64 0 4 0 C4 1.65 4 3.3 4 5 C2.35 4.67 0.7 4.34 -1 4 C-0.67 2.68 -0.34 1.36 0 0 Z " fill="#152F5B" transform="translate(62,44)"/>
<path d="M0 0 C0.99 0.33 1.98 0.66 3 1 C2.67 2.65 2.34 4.3 2 6 C0.68 5.67 -0.64 5.34 -2 5 C-2 3.68 -2 2.36 -2 1 C-1.34 0.67 -0.68 0.34 0 0 Z " fill="#143056" transform="translate(50,30)"/>
<path d="M0 0 C1.98 0.495 1.98 0.495 4 1 C3.67 2.32 3.34 3.64 3 5 C1.68 5 0.36 5 -1 5 C-0.67 3.35 -0.34 1.7 0 0 Z " fill="#172F5A" transform="translate(72,40)"/>
<path d="M0 0 C2.475 0.495 2.475 0.495 5 1 C4.67 2.32 4.34 3.64 4 5 C2.68 4.67 1.36 4.34 0 4 C0 2.68 0 1.36 0 0 Z " fill="#182D5A" transform="translate(75,31)"/>
<path d="M0 0 C1.98 0.495 1.98 0.495 4 1 C4 2.32 4 3.64 4 5 C2.35 4.67 0.7 4.34 -1 4 C-0.67 2.68 -0.34 1.36 0 0 Z " fill="#172E5A" transform="translate(72,21)"/>
<path d="M0 0 C1.98 0.495 1.98 0.495 4 1 C4 2.32 4 3.64 4 5 C2.35 4.67 0.7 4.34 -1 4 C-0.67 2.68 -0.34 1.36 0 0 Z " fill="#172C57" transform="translate(53,21)"/>
<path d="M0 0 C1.98 0.495 1.98 0.495 4 1 C3.67 2.32 3.34 3.64 3 5 C1.68 4.67 0.36 4.34 -1 4 C-0.67 2.68 -0.34 1.36 0 0 Z " fill="#182D5B" transform="translate(53,40)"/>
<path d="M0 0 C1.32 0.66 2.64 1.32 4 2 C3.67 2.99 3.34 3.98 3 5 C1.68 5 0.36 5 -1 5 C-0.67 3.35 -0.34 1.7 0 0 Z " fill="#182E5A" transform="translate(63,17)"/>
</svg>
