<?xml version="1.0" encoding="UTF-8"?>
<svg version="1.1" xmlns="http://www.w3.org/2000/svg" width="128" height="128">
<path d="M0 0 C2.91517292 1.07401108 4.77810176 1.77810176 7 4 C9.16999194 4.4230689 9.16999194 4.4230689 11.5625 4.5625 C15.90277778 4.90277778 15.90277778 4.90277778 17 6 C17.061875 7.0725 17.12375 8.145 17.1875 9.25 C18.26383703 14.21770935 19.93587194 15.14646328 24 18 C23.45276317 21.37462715 22.9451 23.08235 21 26 C20.75849227 28.51584891 20.75849227 28.51584891 20.875 31.1875 C20.89304688 32.08855469 20.91109375 32.98960938 20.9296875 33.91796875 C20.95289063 34.60503906 20.97609375 35.29210938 21 36 C19.72125 36.20625 18.4425 36.4125 17.125 36.625 C14.92186032 37.08483533 14.92186032 37.08483533 13 38 C11.38852558 40.99428144 11.38852558 40.99428144 11 44 C7.90529578 44.84401024 5.83456356 44.9754909 2.625 44.5 C-1.18429132 43.97458051 -4.23614051 44.30867887 -8 45 C-8.70125 43.88625 -9.4025 42.7725 -10.125 41.625 C-12.6115108 38.09828697 -14.69932292 36.90014171 -19 36 C-18.96519531 35.33613281 -18.93039063 34.67226563 -18.89453125 33.98828125 C-18.72916004 28.59402992 -18.90942838 25.56867109 -22 21 C-22 18.9375 -22 18.9375 -21 17 C-20.175 16.401875 -19.35 15.80375 -18.5 15.1875 C-15.2145491 12.31273046 -15.32004512 10.24059784 -15 6 C-13.46444046 4.46444046 -11.8820586 4.81104644 -9.75 4.6875 C-5.42228926 4.273365 -3.13431201 3.13431201 0 0 Z M-11.25 13.54296875 C-14.23824508 18.07721562 -14.68042447 21.64165734 -14 27 C-11.75363633 31.32633002 -9.19054939 34.48567037 -5 37 C-0.58514537 38.19364588 2.88567065 38.36429998 7.25 36.9375 C11.39197895 34.01928756 14.36477655 30.90567035 16 26 C16.6564428 20.42023619 15.53148866 17.21388374 12.40625 12.734375 C9.81817284 9.54241317 7.7738857 8.23512915 3.671875 7.69140625 C-2.73250647 7.37502214 -7.02471722 8.32738532 -11.25 13.54296875 Z " fill="#009FC3" transform="translate(63,5)"/>
<path d="M0 0 C6.10984728 3.61266903 9.23298784 8.87688712 11.5625 15.375 C11.5625 16.365 11.5625 17.355 11.5625 18.375 C-2.9575 18.375 -17.4775 18.375 -32.4375 18.375 C-30.46255585 9.48775133 -29.54264738 6.22665137 -22.6875 1.0546875 C-15.89709891 -2.99125982 -7.18463755 -3.23240782 0 0 Z " fill="#005273" transform="translate(74.4375,103.625)"/>
<path d="M0 0 C6.44100546 3.59849601 9.11451672 7.90867097 11.625 14.8125 C11.625 16.1325 11.625 17.4525 11.625 18.8125 C6.5898329 19.01068991 1.55694594 19.15561223 -3.48120117 19.25195312 C-5.19351754 19.29211717 -6.90556064 19.34666398 -8.61694336 19.41601562 C-22.8493251 19.9782009 -22.8493251 19.9782009 -26.62866211 17.09057617 C-28.57968564 14.0612918 -29.31255699 11.70751651 -29.5625 8.125 C-27.23392896 3.59041429 -23.43450294 1.40337664 -19.125 -1 C-12.1973366 -3.19376008 -6.63217557 -3.09631761 0 0 Z " fill="#007A9E" transform="translate(110.375,96.1875)"/>
<path d="M0 0 C2.74580918 1.83053945 4.57314541 3.51139951 6.14453125 6.4296875 C6.14453125 10.51918199 3.08877788 14.0272559 1.14453125 17.4296875 C-10.73546875 17.4296875 -22.61546875 17.4296875 -34.85546875 17.4296875 C-33.74293879 9.64197776 -31.97475775 5.46899473 -26.41796875 0.0546875 C-17.7109825 -5.46681598 -8.79116119 -4.90089931 0 0 Z " fill="#003757" transform="translate(40.85546875,97.5703125)"/>
<path d="M0 0 C3.83308654 1.44805492 4.8126414 2.6752451 6.875 6.25 C8.14849453 10.49498178 8.25641626 12.75959514 7 17 C4.5 19.875 4.5 19.875 2 22 C1.67 22.33 1.34 22.66 1 23 C-3.78573887 23.54061124 -7.74960781 23.70334561 -12 21.3125 C-15.19325661 17.62029705 -16.23824378 14.84835422 -15.9375 10 C-15.27704049 5.7392307 -13.36189196 3.70591304 -10 1 C-6.79888929 -0.60055535 -3.48117737 -0.35481231 0 0 Z " fill="#00688C" transform="translate(68,76)"/>
<path d="M0 0 C2.94194583 2.02258775 4.49783456 3.47467248 5.625 6.8984375 C6.5136725 11.73059421 5.79962129 14.84883739 3 19 C-0.77659748 22.43327044 -3.6480995 22.51167792 -8.58984375 22.3515625 C-12.0662542 21.84446859 -13.72079454 20.63533132 -16 18 C-18.25424752 14.31123134 -18.26594425 11.09333742 -17.61328125 6.93359375 C-16.59215884 3.71413136 -14.59723258 2.04068274 -12 0 C-7.80286671 -1.39904443 -4.27028044 -1.07131597 0 0 Z " fill="#0091B5" transform="translate(106,69)"/>
<path d="M0 0 C3.2178069 2.31138242 4.72844652 5.20231164 6 8.9375 C6 12.96335666 4.92407413 15.48358865 3 19 C-0.72795699 22.46974352 -3.67463939 22.51081802 -8.58984375 22.3515625 C-12.0662542 21.84446859 -13.72079454 20.63533132 -16 18 C-18.25424752 14.31123134 -18.26594425 11.09333742 -17.61328125 6.93359375 C-16.59215884 3.71413136 -14.59723258 2.04068274 -12 0 C-7.80725882 -1.39758039 -4.24772348 -1.20724773 0 0 Z " fill="#005071" transform="translate(34,69)"/>
<path d="M0 0 C3.47919579 2.51686504 4.75960574 4.4355961 6.4375 8.375 C7.10945498 12.70537651 6.77939244 14.99636701 5 19 C2.25700866 22.22301482 0.72213139 23.65613286 -3.40625 24.48046875 C-7.61385734 24.7149288 -11.0143602 24.51171103 -14.5 22 C-17.48832569 18.41400918 -18.71658324 15.64437787 -19 11 C-18.1055685 5.93155482 -15.87424033 3.30727833 -12 0 C-7.80760932 -1.39746356 -4.26504267 -1.07937811 0 0 Z M-7 4 C-7.33 5.32 -7.66 6.64 -8 8 C-9.65 8 -11.3 8 -13 8 C-13.33 9.32 -13.66 10.64 -14 12 C-13.01 12.495 -13.01 12.495 -12 13 C-12 14.98 -12 16.96 -12 19 C-10.68 19 -9.36 19 -8 19 C-5.33333333 19 -2.66666667 19 0 19 C0 17.02 0 15.04 0 13 C0.66 12.67 1.32 12.34 2 12 C1.67 10.68 1.34 9.36 1 8 C-0.65 8 -2.3 8 -4 8 C-4.33 6.68 -4.66 5.36 -5 4 C-5.66 4 -6.32 4 -7 4 Z " fill="#00A1C4" transform="translate(70,16)"/>
<path d="M0 0 C3 1 3 1 4.9375 3.9375 C6.86594594 7.34302068 6.86594594 7.34302068 11 9 C9.68 12.63 8.36 16.26 7 20 C6.34 19.175 5.68 18.35 5 17.5 C0.97633382 14.14694485 -0.90700467 14.56839023 -6 15 C-4.36041242 9.76727367 -2.61047965 4.84803364 0 0 Z " fill="#00799F" transform="translate(48,45)"/>
<path d="M0 0 C0.99 0.33 1.98 0.66 3 1 C4.03865096 3.36695387 4.89577096 5.61555495 5.6875 8.0625 C5.91244141 8.72572266 6.13738281 9.38894531 6.36914062 10.07226562 C6.92334719 11.71130207 7.46306085 13.35522593 8 15 C6.783125 14.896875 5.56625 14.79375 4.3125 14.6875 C0.54994773 14.65408479 0.11196358 14.90669702 -3 17.5 C-3.99 18.7375 -3.99 18.7375 -5 20 C-6.32 16.04 -7.64 12.08 -9 8 C-7.35 7.34 -5.7 6.68 -4 6 C-1.68498196 2.98716267 -1.68498196 2.98716267 0 0 Z " fill="#0093B7" transform="translate(78,45)"/>
<path d="M0 0 C0.66 0 1.32 0 2 0 C2 0.66 2 1.32 2 2 C2.66 2 3.32 2 4 2 C3.67 3.32 3.34 4.64 3 6 C1.68 6 0.36 6 -1 6 C-1.33 4.68 -1.66 3.36 -2 2 C-1.34 2 -0.68 2 0 2 C0 1.34 0 0.68 0 0 Z " fill="#00A0C4" transform="translate(63,25)"/>
</svg>
