<?xml version="1.0" encoding="UTF-8"?>
<svg version="1.1" xmlns="http://www.w3.org/2000/svg" width="128" height="128">
<path d="M0 0 C2.79268315 1.36919886 3.85776315 2.54426508 6 5 C6.66015625 8.68359375 6.66015625 8.68359375 7 12 C8.26457031 11.96519531 9.52914062 11.93039062 10.83203125 11.89453125 C12.49217423 11.86639323 14.15233156 11.83909309 15.8125 11.8125 C17.06256836 11.77479492 17.06256836 11.77479492 18.33789062 11.73632812 C19.14033203 11.72666016 19.94277344 11.71699219 20.76953125 11.70703125 C21.87711792 11.68346558 21.87711792 11.68346558 23.00708008 11.65942383 C25.60561728 12.10349579 26.35583809 12.97087832 28 15 C28.26172754 18.01296236 28.34860113 20.81480568 28.29296875 23.82421875 C28.28872391 24.68561966 28.28447906 25.54702057 28.28010559 26.43452454 C28.26331248 29.18583431 28.22565956 31.93641162 28.1875 34.6875 C28.17245396 36.5527238 28.15876541 38.41795907 28.14648438 40.28320312 C28.11340693 44.85575098 28.0616206 49.4277513 28 54 C29.98 54 31.96 54 34 54 C34.36402557 60.43111847 34.36402557 60.43111847 32.90820312 62.70620728 C30.05216693 64.64264622 27.70783558 64.38152266 24.28125 64.38818359 C23.26369629 64.39606903 23.26369629 64.39606903 22.22558594 64.40411377 C19.98348965 64.41731635 17.74210349 64.40857538 15.5 64.3984375 C13.9420559 64.40045818 12.38411273 64.40336956 10.82617188 64.40713501 C7.56110631 64.41155869 4.29628695 64.40512609 1.03125 64.39111328 C-3.15551349 64.37402113 -7.34170007 64.38386211 -11.52844238 64.40183067 C-14.74548699 64.41266746 -17.96239465 64.40922271 -21.17944336 64.4014473 C-22.7232266 64.39944499 -24.26702225 64.40190566 -25.81079102 64.40888596 C-27.96794604 64.41649901 -30.12416478 64.40489972 -32.28125 64.38818359 C-33.50908203 64.38579681 -34.73691406 64.38341003 -36.00195312 64.38095093 C-39 64 -39 64 -40.90820312 62.70620728 C-42.68198522 59.93422652 -42.18057373 57.19013581 -42 54 C-40.02 54 -38.04 54 -36 54 C-36.01571045 52.83428467 -36.0314209 51.66856934 -36.04760742 50.4675293 C-36.10187534 46.14582214 -36.13633859 41.82414515 -36.16479492 37.50219727 C-36.17988873 35.63105201 -36.20036589 33.75994217 -36.22631836 31.88891602 C-36.26267593 29.20059474 -36.27972015 26.51274087 -36.29296875 23.82421875 C-36.30845261 22.98662521 -36.32393646 22.14903168 -36.33988953 21.28605652 C-36.34159191 15.42157135 -36.34159191 15.42157135 -34.60327148 13.27624512 C-32.5354737 11.63022518 -31.38825906 11.65131364 -28.76953125 11.70703125 C-27.96708984 11.71669922 -27.16464844 11.72636719 -26.33789062 11.73632812 C-25.50451172 11.76146484 -24.67113281 11.78660156 -23.8125 11.8125 C-22.96751953 11.82603516 -22.12253906 11.83957031 -21.25195312 11.85351562 C-19.16769616 11.88884201 -17.08376723 11.94264861 -15 12 C-14.88785156 10.90558594 -14.77570313 9.81117187 -14.66015625 8.68359375 C-13.95899432 4.77119318 -13.0409155 3.21988145 -9.80859375 0.88671875 C-6.49146171 -0.73960733 -3.56727636 -0.87231609 0 0 Z M-28 20 C-28 26.93 -28 33.86 -28 41 C-26.01338671 38.27644459 -26.01338671 38.27644459 -25.2890625 36.046875 C-23.37269487 33.00391549 -20.50118992 31.80641507 -17.375 30.25 C-16.45847656 29.77626953 -16.45847656 29.77626953 -15.5234375 29.29296875 C-14.02094261 28.51824482 -12.51114982 27.75770329 -11 27 C-11.99 24.69 -12.98 22.38 -14 20 C-18.62 20 -23.24 20 -28 20 Z M6 20 C4.515 23.465 4.515 23.465 3 27 C3.90363281 27.42410156 4.80726562 27.84820313 5.73828125 28.28515625 C16.57155975 33.67219638 16.57155975 33.67219638 18.3125 37.9375 C18.6528125 39.4534375 18.6528125 39.4534375 19 41 C19.33 41 19.66 41 20 41 C20 34.07 20 27.14 20 20 C15.38 20 10.76 20 6 20 Z M19 45 C18.5658226 45.48732101 18.1316452 45.97464203 17.68431091 46.47673035 C14.76157234 49.12001843 10.84870413 48.40407169 7.09765625 48.36328125 C5.78649086 48.36402901 5.78649086 48.36402901 4.44883728 48.36479187 C2.60038988 48.36245171 0.75193928 48.35272658 -1.09643555 48.33618164 C-3.92330499 48.31261832 -6.74922937 48.31561747 -9.57617188 48.32226562 C-11.37240145 48.31668774 -13.16862705 48.30957716 -14.96484375 48.30078125 C-16.23218605 48.30214836 -16.23218605 48.30214836 -17.52513123 48.30354309 C-18.3159761 48.29401108 -19.10682098 48.28447906 -19.92163086 48.2746582 C-20.6142955 48.27005081 -21.30696014 48.26544342 -22.02061462 48.26069641 C-24.336933 47.95562399 -25.97596346 47.13992863 -28 46 C-28 47.32 -28 48.64 -28 50 C-12.16 50 3.68 50 20 50 C20 48.35 20 46.7 20 45 C19.67 45 19.34 45 19 45 Z " fill="#1F3E75" transform="translate(93,1)"/>
<path d="M0 0 C2.5 1.625 2.5 1.625 4 4 C4.37860316 6.32641682 4.71637625 8.66010404 5 11 C6.26457031 10.96519531 7.52914062 10.93039063 8.83203125 10.89453125 C10.49217423 10.86639323 12.15233156 10.83909309 13.8125 10.8125 C15.06256836 10.77479492 15.06256836 10.77479492 16.33789062 10.73632812 C17.14033203 10.72666016 17.94277344 10.71699219 18.76953125 10.70703125 C19.87711792 10.68346558 19.87711792 10.68346558 21.00708008 10.65942383 C23.60561728 11.10349579 24.35583809 11.97087832 26 14 C26.26172754 17.01296236 26.34860113 19.81480568 26.29296875 22.82421875 C26.28872391 23.68561966 26.28447906 24.54702057 26.28010559 25.43452454 C26.26331248 28.18583431 26.22565956 30.93641162 26.1875 33.6875 C26.17245396 35.5527238 26.15876541 37.41795907 26.14648438 39.28320312 C26.11340693 43.85575098 26.0616206 48.4277513 26 53 C26.804375 52.979375 27.60875 52.95875 28.4375 52.9375 C31 53 31 53 32 54 C32.46064924 59.29746628 32.46064924 59.29746628 30.90429688 61.67105103 C28.05672997 63.65827852 25.72780069 63.38148385 22.28125 63.38818359 C21.26369629 63.39606903 21.26369629 63.39606903 20.22558594 63.40411377 C17.98348965 63.41731635 15.74210349 63.40857538 13.5 63.3984375 C11.9420559 63.40045818 10.38411273 63.40336956 8.82617188 63.40713501 C5.56110631 63.41155869 2.29628695 63.40512609 -0.96875 63.39111328 C-5.15551349 63.37402113 -9.34170007 63.38386211 -13.52844238 63.40183067 C-16.74548699 63.41266746 -19.96239465 63.40922271 -23.17944336 63.4014473 C-24.7232266 63.39944499 -26.26702225 63.40190566 -27.81079102 63.40888596 C-29.96794604 63.41649901 -32.12416478 63.40489972 -34.28125 63.38818359 C-35.50908203 63.38579681 -36.73691406 63.38341003 -38.00195312 63.38095093 C-41 63 -41 63 -42.90429688 61.67105103 C-44.57166757 59.12815282 -44.25703424 56.95589376 -44 54 C-43 53 -43 53 -40.4375 52.9375 C-39.633125 52.958125 -38.82875 52.97875 -38 53 C-38.01571045 51.83428467 -38.0314209 50.66856934 -38.04760742 49.4675293 C-38.10187534 45.14582214 -38.13633859 40.82414515 -38.16479492 36.50219727 C-38.17988873 34.63105201 -38.20036589 32.75994217 -38.22631836 30.88891602 C-38.26267593 28.20059474 -38.27972015 25.51274087 -38.29296875 22.82421875 C-38.30845261 21.98662521 -38.32393646 21.14903168 -38.33988953 20.28605652 C-38.34159191 14.42157135 -38.34159191 14.42157135 -36.60327148 12.27624512 C-34.5354737 10.63022518 -33.38825906 10.65131364 -30.76953125 10.70703125 C-29.96708984 10.71669922 -29.16464844 10.72636719 -28.33789062 10.73632812 C-27.50451172 10.76146484 -26.67113281 10.78660156 -25.8125 10.8125 C-24.96751953 10.82603516 -24.12253906 10.83957031 -23.25195312 10.85351562 C-21.16769616 10.88884201 -19.08376723 10.94264861 -17 11 C-16.81050781 9.34097656 -16.81050781 9.34097656 -16.6171875 7.6484375 C-15.9318238 3.59698375 -15.20358606 2.4498011 -12 0 C-7.81952673 -1.39349109 -4.26509162 -0.97950567 0 0 Z M-30 19 C-30 25.93 -30 32.86 -30 40 C-29.01 38.515 -29.01 38.515 -28 37 C-23.96509509 31.19982419 -19.41569592 28.81543161 -13 26 C-13.99 23.69 -14.98 21.38 -16 19 C-20.62 19 -25.24 19 -30 19 Z M4 19 C2.515 22.465 2.515 22.465 1 26 C1.74765625 26.37511719 2.4953125 26.75023437 3.265625 27.13671875 C13.01938653 32.20510007 13.01938653 32.20510007 16 37 C16.66 37.99 17.32 38.98 18 40 C18 33.07 18 26.14 18 19 C13.38 19 8.76 19 4 19 Z M-30 45 C-30 46.32 -30 47.64 -30 49 C-14.16 49 1.68 49 18 49 C17.505 47.02 17.505 47.02 17 45 C16.34 45.66 15.68 46.32 15 47 C13.18519592 47.25396729 13.18519592 47.25396729 10.96508789 47.25878906 C10.13405045 47.26509338 9.303013 47.27139771 8.4467926 47.27789307 C7.09834511 47.27182037 7.09834511 47.27182037 5.72265625 47.265625 C4.33922279 47.26849518 4.33922279 47.26849518 2.92784119 47.27142334 C0.97508471 47.27278579 -0.9776808 47.26908517 -2.93041992 47.26074219 C-5.92191928 47.25005566 -8.91281643 47.26062919 -11.90429688 47.2734375 C-13.79948049 47.27211568 -15.69466374 47.26955281 -17.58984375 47.265625 C-18.9352549 47.27169769 -18.9352549 47.27169769 -20.30784607 47.27789307 C-21.14203568 47.27158875 -21.97622528 47.26528442 -22.83569336 47.25878906 C-23.93584023 47.25640228 -23.93584023 47.25640228 -25.05821228 47.25396729 C-27 47 -27 47 -30 45 Z " fill="#1F3C73" transform="translate(45,64)"/>
<path d="M0 0 C1.0209375 -0.01160156 1.0209375 -0.01160156 2.0625 -0.0234375 C4.67616077 0.51404919 5.49745418 1.16266259 7 3.375 C7.3984375 6.3359375 7.3984375 6.3359375 7.375 9.75 C7.38273437 10.87148437 7.39046875 11.99296875 7.3984375 13.1484375 C6.96539433 16.6552381 5.91762657 18.46081158 4 21.375 C3.74803871 24.08453551 3.74803871 24.08453551 4 26.375 C4.87011719 26.61283203 4.87011719 26.61283203 5.7578125 26.85546875 C11.24799085 28.4952745 15.10870465 30.09457511 19 34.375 C19.9375 38.125 19.9375 38.125 20 41.375 C18.15723491 43.21776509 15.57036241 42.50374411 13.11865234 42.51394653 C12.29574707 42.5119223 11.4728418 42.50989807 10.625 42.5078125 C9.78533691 42.50876923 8.94567383 42.50972595 8.08056641 42.51071167 C6.30175705 42.51139348 4.52294523 42.50953917 2.74414062 42.50537109 C0.01166224 42.50002283 -2.72065176 42.50531605 -5.453125 42.51171875 C-7.1770837 42.51105797 -8.90104229 42.50977681 -10.625 42.5078125 C-11.44790527 42.50983673 -12.27081055 42.51186096 -13.11865234 42.51394653 C-18.88504946 42.48995054 -18.88504946 42.48995054 -20 41.375 C-19.91512012 36.96124628 -19.50496285 34.93045914 -16.5 31.625 C-12.74360491 28.84893241 -8.46118636 27.59439094 -4 26.375 C-3.7336963 23.2681235 -3.74522038 21.76218477 -5.48828125 19.11328125 C-7.32951265 15.77813083 -7.40112521 13.53815482 -7.375 9.75 C-7.38273437 8.62335938 -7.39046875 7.49671875 -7.3984375 6.3359375 C-7 3.375 -7 3.375 -5.7265625 1.5 C-3.65637801 0.15110151 -2.45800811 -0.02793191 0 0 Z " fill="#1D9CD6" transform="translate(39,66.625)"/>
<path d="M0 0 C1.0209375 -0.01160156 1.0209375 -0.01160156 2.0625 -0.0234375 C4.67616077 0.51404919 5.49745418 1.16266259 7 3.375 C7.3984375 6.3359375 7.3984375 6.3359375 7.375 9.75 C7.38273437 10.87148437 7.39046875 11.99296875 7.3984375 13.1484375 C6.96539433 16.6552381 5.91762657 18.46081158 4 21.375 C3.74803871 24.08453551 3.74803871 24.08453551 4 26.375 C4.87011719 26.61283203 4.87011719 26.61283203 5.7578125 26.85546875 C11.24799085 28.4952745 15.10870465 30.09457511 19 34.375 C19.495 37.84 19.495 37.84 20 41.375 C6.8 41.375 -6.4 41.375 -20 41.375 C-19 34.375 -19 34.375 -16.5 31.625 C-12.74360491 28.84893241 -8.46118636 27.59439094 -4 26.375 C-3.7336963 23.2681235 -3.74522038 21.76218477 -5.48828125 19.11328125 C-7.32951265 15.77813083 -7.40112521 13.53815482 -7.375 9.75 C-7.38273437 8.62335937 -7.39046875 7.49671875 -7.3984375 6.3359375 C-7 3.375 -7 3.375 -5.7265625 1.5 C-3.65637801 0.15110151 -2.45800811 -0.02793191 0 0 Z " fill="#1D9ED8" transform="translate(89,4.625)"/>
<path d="M0 0 C0.74886475 0.00523682 1.49772949 0.01047363 2.26928711 0.01586914 C3.07817383 0.0190918 3.88706055 0.02231445 4.72045898 0.02563477 C5.5705957 0.03401367 6.42073242 0.04239258 7.29663086 0.05102539 C8.15063477 0.05553711 9.00463867 0.06004883 9.88452148 0.06469727 C12.00108749 0.07652166 14.11761771 0.0944577 16.23413086 0.11352539 C16.23413086 0.77352539 16.23413086 1.43352539 16.23413086 2.11352539 C10.62413086 2.11352539 5.01413086 2.11352539 -0.76586914 2.11352539 C-0.43586914 13.99352539 -0.10586914 25.87352539 0.23413086 38.11352539 C17.39413086 38.11352539 34.55413086 38.11352539 52.23413086 38.11352539 C52.56413086 26.23352539 52.89413086 14.35352539 53.23413086 2.11352539 C47.62413086 2.11352539 42.01413086 2.11352539 36.23413086 2.11352539 C36.23413086 1.45352539 36.23413086 0.79352539 36.23413086 0.11352539 C39.21335679 0.08668552 42.19234381 0.06676502 45.17163086 0.05102539 C46.44683594 0.03845703 46.44683594 0.03845703 47.74780273 0.02563477 C48.55668945 0.02241211 49.36557617 0.01918945 50.19897461 0.01586914 C50.94783936 0.01063232 51.6967041 0.00539551 52.46826172 0 C54.23413086 0.11352539 54.23413086 0.11352539 55.23413086 1.11352539 C55.33516341 3.91346137 55.37383174 6.68821183 55.36694336 9.48852539 C55.36790009 10.32818848 55.36885681 11.16785156 55.36984253 12.03295898 C55.37052433 13.81176834 55.36867002 15.59058016 55.36450195 17.36938477 C55.35915369 20.10186315 55.36444691 22.83417715 55.37084961 25.56665039 C55.37018883 27.29060909 55.36890767 29.01456768 55.36694336 30.73852539 C55.36896759 31.56143066 55.37099182 32.38433594 55.37307739 33.23217773 C55.3490814 38.99857485 55.3490814 38.99857485 54.23413086 40.11352539 C52.89145673 40.19984413 51.54438764 40.22059012 50.19897461 40.21118164 C49.39008789 40.20795898 48.58120117 40.20473633 47.74780273 40.20141602 C46.89766602 40.19303711 46.0475293 40.1846582 45.17163086 40.17602539 C44.31762695 40.17151367 43.46362305 40.16700195 42.58374023 40.16235352 C40.46717422 40.15052912 38.35064401 40.13259308 36.23413086 40.11352539 C36.23413086 41.10352539 36.23413086 42.09352539 36.23413086 43.11352539 C29.63413086 43.11352539 23.03413086 43.11352539 16.23413086 43.11352539 C16.23413086 42.12352539 16.23413086 41.13352539 16.23413086 40.11352539 C14.94635742 40.12512695 13.65858398 40.13672852 12.33178711 40.14868164 C10.65340314 40.15805809 8.9750176 40.16715844 7.29663086 40.17602539 C6.44649414 40.1844043 5.59635742 40.1927832 4.72045898 40.20141602 C3.91157227 40.20463867 3.10268555 40.20786133 2.26928711 40.21118164 C1.52042236 40.21641846 0.77155762 40.22165527 0 40.22705078 C-1.76586914 40.11352539 -1.76586914 40.11352539 -2.76586914 39.11352539 C-2.86690169 36.31358942 -2.90557002 33.53883895 -2.89868164 30.73852539 C-2.89963837 29.8988623 -2.90059509 29.05919922 -2.90158081 28.1940918 C-2.90226262 26.41528244 -2.90040831 24.63647062 -2.89624023 22.85766602 C-2.89089197 20.12518763 -2.8961852 17.39287363 -2.90258789 14.66040039 C-2.90192711 12.93644169 -2.90064595 11.2124831 -2.89868164 9.48852539 C-2.90070587 8.66562012 -2.9027301 7.84271484 -2.90481567 6.99487305 C-2.87647711 0.18492491 -2.87647711 0.18492491 0 0 Z " fill="#1D79B1" transform="translate(62.765869140625,15.886474609375)"/>
<path d="M0 0 C1.57043101 0.01330874 3.14079971 0.03717648 4.7109375 0.0703125 C5.51273438 0.07933594 6.31453125 0.08835937 7.140625 0.09765625 C9.12252273 0.12125027 11.10426731 0.15712185 13.0859375 0.1953125 C13.0859375 0.8553125 13.0859375 1.5153125 13.0859375 2.1953125 C7.4759375 2.1953125 1.8659375 2.1953125 -3.9140625 2.1953125 C-3.9140625 14.4053125 -3.9140625 26.6153125 -3.9140625 39.1953125 C13.9059375 39.1953125 31.7259375 39.1953125 50.0859375 39.1953125 C50.0859375 26.9853125 50.0859375 14.7753125 50.0859375 2.1953125 C44.4759375 2.1953125 38.8659375 2.1953125 33.0859375 2.1953125 C33.0859375 1.5353125 33.0859375 0.8753125 33.0859375 0.1953125 C35.87785955 0.14150672 38.6687516 0.10173581 41.4609375 0.0703125 C42.255 0.05355469 43.0490625 0.03679687 43.8671875 0.01953125 C45.94085765 0.00195777 48.01476991 0.09196082 50.0859375 0.1953125 C52.0859375 2.1953125 52.0859375 2.1953125 52.31298828 5.91064453 C52.31267101 7.50817302 52.30133732 9.10572277 52.28125 10.703125 C52.2784201 11.54374481 52.27559021 12.38436462 52.27267456 13.25045776 C52.2614618 15.94055296 52.23635553 18.6303176 52.2109375 21.3203125 C52.2009091 23.14192228 52.19178301 24.96353727 52.18359375 26.78515625 C52.16321872 31.25543875 52.12407283 35.72500476 52.0859375 40.1953125 C45.8159375 40.1953125 39.5459375 40.1953125 33.0859375 40.1953125 C33.0859375 41.1853125 33.0859375 42.1753125 33.0859375 43.1953125 C26.4859375 43.1953125 19.8859375 43.1953125 13.0859375 43.1953125 C13.0859375 42.2053125 13.0859375 41.2153125 13.0859375 40.1953125 C6.8159375 40.1953125 0.5459375 40.1953125 -5.9140625 40.1953125 C-5.95991878 34.8199377 -5.9997601 29.44523862 -6.02392578 24.06982422 C-6.03399734 22.24037377 -6.04765526 20.41093947 -6.06494141 18.58154297 C-6.08913927 15.95536316 -6.10053382 13.32939575 -6.109375 10.703125 C-6.11969757 9.88224396 -6.13002014 9.06136292 -6.14065552 8.21560669 C-6.14105434 6.20742108 -6.0365579 4.19975868 -5.9140625 2.1953125 C-3.9140625 0.1953125 -3.9140625 0.1953125 0 0 Z " fill="#1D7CB5" transform="translate(15.9140625,77.8046875)"/>
<path d="M0 0 C-0.29097694 5.46588994 -3.50704121 8.02397747 -7.22265625 11.61328125 C-7.84273056 12.22769577 -8.46280487 12.84211029 -9.10166931 13.47514343 C-11.07940583 15.43053458 -13.07060817 17.37154064 -15.0625 19.3125 C-16.40781348 20.63774625 -17.7522257 21.96390809 -19.09570312 23.29101562 C-22.38678128 26.53805073 -25.69000432 29.77225596 -29 33 C-27.68 33.66 -26.36 34.32 -25 35 C-25.33 35.99 -25.66 36.98 -26 38 C-27.81242052 38.02687279 -29.62495233 38.04633715 -31.4375 38.0625 C-32.44683594 38.07410156 -33.45617187 38.08570313 -34.49609375 38.09765625 C-37 38 -37 38 -38 37 C-38.07205511 35.31391034 -38.08386068 33.62499341 -38.0625 31.9375 C-38.05347656 31.01839844 -38.04445313 30.09929687 -38.03515625 29.15234375 C-38.02355469 28.44207031 -38.01195313 27.73179688 -38 27 C-36.68 26.67 -35.36 26.34 -34 26 C-33.67 27.32 -33.34 28.64 -33 30 C-32.10692139 29.09121094 -31.21384277 28.18242188 -30.29370117 27.24609375 C-26.98586382 23.88405451 -23.66818807 20.53187321 -20.34741211 17.18261719 C-18.91012566 15.73022193 -17.47554027 14.27514862 -16.04370117 12.81738281 C-13.98796492 10.7253563 -11.92278327 8.64307773 -9.85546875 6.5625 C-9.21473923 5.90628662 -8.5740097 5.25007324 -7.91386414 4.57397461 C-7.01327019 3.67304077 -7.01327019 3.67304077 -6.09448242 2.75390625 C-5.56819748 2.22095947 -5.04191254 1.6880127 -4.49967957 1.13891602 C-3 0 -3 0 0 0 Z " fill="#1F3A72" transform="translate(111,68)"/>
<path d="M0 0 C1.81242052 -0.02687279 3.62495233 -0.04633715 5.4375 -0.0625 C6.44683594 -0.07410156 7.45617188 -0.08570312 8.49609375 -0.09765625 C11 0 11 0 12 1 C12.07205511 2.68608966 12.08386068 4.37500659 12.0625 6.0625 C12.05347656 6.98160156 12.04445312 7.90070312 12.03515625 8.84765625 C12.02355469 9.55792969 12.01195312 10.26820312 12 11 C10.68 11.33 9.36 11.66 8 12 C7.505 10.02 7.505 10.02 7 8 C6.10692139 8.90878906 5.21384277 9.81757813 4.29370117 10.75390625 C0.98586382 14.11594549 -2.33181193 17.46812679 -5.65258789 20.81738281 C-7.08987434 22.26977807 -8.52445973 23.72485138 -9.95629883 25.18261719 C-12.01203508 27.2746437 -14.07721673 29.35692227 -16.14453125 31.4375 C-16.78526077 32.09371338 -17.4259903 32.74992676 -18.08613586 33.42602539 C-18.98672981 34.32695923 -18.98672981 34.32695923 -19.90551758 35.24609375 C-20.43180252 35.77904053 -20.95808746 36.3119873 -21.50032043 36.86108398 C-23 38 -23 38 -26 38 C-25.70902306 32.53411006 -22.49295879 29.97602253 -18.77734375 26.38671875 C-18.15726944 25.77230423 -17.53719513 25.15788971 -16.89833069 24.52485657 C-14.92059417 22.56946542 -12.92939183 20.62845936 -10.9375 18.6875 C-9.59218652 17.36225375 -8.2477743 16.03609191 -6.90429688 14.70898438 C-3.61321872 11.46194927 -0.30999568 8.22774404 3 5 C1.68 4.34 0.36 3.68 -1 3 C-0.67 2.01 -0.34 1.02 0 0 Z " fill="#203A71" transform="translate(43,22)"/>
<path d="M0 0 C2.97922593 -0.02683987 5.95821295 -0.04676037 8.9375 -0.0625 C9.78763672 -0.07087891 10.63777344 -0.07925781 11.51367188 -0.08789062 C12.32255859 -0.09111328 13.13144531 -0.09433594 13.96484375 -0.09765625 C14.7137085 -0.10289307 15.46257324 -0.10812988 16.23413086 -0.11352539 C18 0 18 0 19 1 C19.10103255 3.79993597 19.13970088 6.57468644 19.1328125 9.375 C19.13424759 10.63449463 19.13424759 10.63449463 19.13571167 11.91943359 C19.13639348 13.69824295 19.13453917 15.47705477 19.13037109 17.25585938 C19.12502283 19.98833776 19.13031605 22.72065176 19.13671875 25.453125 C19.13605797 27.1770837 19.13477681 28.90104229 19.1328125 30.625 C19.13483673 31.44790527 19.13686096 32.27081055 19.13894653 33.11865234 C19.11495054 38.88504946 19.11495054 38.88504946 18 40 C15.13732433 40.07325168 12.299281 40.09238205 9.4375 40.0625 C8.63119141 40.05798828 7.82488281 40.05347656 6.99414062 40.04882812 C4.99606244 40.03700518 2.99802217 40.01906914 1 40 C1 39.67 1 39.34 1 39 C5.95 38.67 10.9 38.34 16 38 C16.33 26.12 16.66 14.24 17 2 C11.39 2 5.78 2 0 2 C0 1.34 0 0.68 0 0 Z " fill="#1D78B1" transform="translate(99,16)"/>
<path d="M0 0 C7.26 0 14.52 0 22 0 C21.67 1.32 21.34 2.64 21 4 C14.4 4 7.8 4 1 4 C0.67 2.68 0.34 1.36 0 0 Z " fill="#1D98D2" transform="translate(28,117)"/>
<path d="M0 0 C7.26 0 14.52 0 22 0 C21.67 1.32 21.34 2.64 21 4 C14.4 4 7.8 4 1 4 C0.67 2.68 0.34 1.36 0 0 Z " fill="#1D93CD" transform="translate(78,55)"/>
<path d="M0 0 C7.59 0 15.18 0 23 0 C22.67 0.99 22.34 1.98 22 3 C14.41 3 6.82 3 -1 3 C-0.67 2.01 -0.34 1.02 0 0 Z " fill="#1D8FC9" transform="translate(51,121)"/>
<path d="M0 0 C7.26 0 14.52 0 22 0 C22.33 0.99 22.66 1.98 23 3 C15.41 3 7.82 3 0 3 C0 2.01 0 1.02 0 0 Z " fill="#1D91CA" transform="translate(5,121)"/>
<path d="M0 0 C6.93 0 13.86 0 21 0 C21 0.99 21 1.98 21 3 C13.74 3 6.48 3 -1 3 C-0.67 2.01 -0.34 1.02 0 0 Z " fill="#1D92CC" transform="translate(102,58)"/>
<path d="M0 0 C6.93 0 13.86 0 21 0 C21.33 0.99 21.66 1.98 22 3 C14.74 3 7.48 3 0 3 C0 2.01 0 1.02 0 0 Z " fill="#1D92CC" transform="translate(55,58)"/>
</svg>
